<!DOCTYPE svg PUBLIC "-//W3C//DTD SVG 1.1//EN" "http://www.w3.org/Graphics/SVG/1.1/DTD/svg11.dtd">
<!-- Uploaded to: SVG Repo, www.svgrepo.com, Transformed by: SVG Repo Mixer Tools -->
<svg fill="#000000" version="1.1" id="Capa_1" xmlns="http://www.w3.org/2000/svg" xmlns:xlink="http://www.w3.org/1999/xlink" width="64px" height="64px" viewBox="-247.02 -247.02 898.98 898.98" xml:space="preserve">
<g id="SVGRepo_bgCarrier" stroke-width="0"/>
<g id="SVGRepo_tracerCarrier" stroke-linecap="round" stroke-linejoin="round"/>
<g id="SVGRepo_iconCarrier"> <g> <g> <path d="M391.691,18.284H13.251C5.931,18.284,0,24.219,0,31.536v242.48c0,7.32,5.931,13.252,13.251,13.252h202.673v86.137 c0,5.359,3.229,10.193,8.182,12.244c1.639,0.68,3.359,1.01,5.066,1.01c3.446,0,6.838-1.348,9.372-3.883l96.173-95.508h56.975 c7.32,0,13.252-5.932,13.252-13.252V31.535C404.943,24.218,399.012,18.284,391.691,18.284z M116.333,185.991 c-18.114,0-32.852-14.737-32.852-32.852s14.737-32.852,32.852-32.852c18.115,0,32.852,14.737,32.852,32.852 S134.448,185.991,116.333,185.991z M202.472,185.991c-18.114,0-32.852-14.737-32.852-32.852s14.737-32.852,32.852-32.852 c18.116,0,32.852,14.737,32.852,32.852S220.586,185.991,202.472,185.991z M288.611,185.991c-18.113,0-32.852-14.737-32.852-32.852 s14.736-32.852,32.852-32.852s32.852,14.737,32.852,32.852S306.725,185.991,288.611,185.991z"/> <g> <path d="M288.611,137.977c-8.359,0-15.162,6.801-15.162,15.162s6.803,15.162,15.162,15.162s15.16-6.801,15.16-15.162 S296.971,137.977,288.611,137.977z"/> <path d="M202.472,137.977c-8.36,0-15.162,6.801-15.162,15.162s6.802,15.162,15.162,15.162s15.161-6.801,15.161-15.162 S210.832,137.977,202.472,137.977z"/> <path d="M116.333,137.977c-8.36,0-15.162,6.801-15.162,15.162s6.802,15.162,15.162,15.162c8.36,0,15.161-6.801,15.161-15.162 S124.694,137.977,116.333,137.977z"/> </g> </g> </g> </g>
</svg>